<?xml version="1.0" standalone="no"?><!DOCTYPE svg PUBLIC "-//W3C//DTD SVG 1.1//EN" "http://www.w3.org/Graphics/SVG/1.1/DTD/svg11.dtd"><svg t="1763229465239" class="icon" viewBox="0 0 1024 1024" version="1.1" xmlns="http://www.w3.org/2000/svg" p-id="22110" xmlns:xlink="http://www.w3.org/1999/xlink" width="200" height="200"><path d="M515.328 821.76c-214.272 0-393.984-188.672-461.312-269.568-26.624-32-26.624-78.592 0-110.592 67.328-81.152 247.04-269.568 461.312-269.568 214.528 0 393.984 188.672 461.312 269.568 26.624 32 26.624 78.592 0 110.592C909.568 633.344 729.856 821.76 515.328 821.76z m0-588.544c-188.416 0-352.256 173.056-413.952 247.552-7.68 9.216-7.68 22.784 0 32.256 61.696 74.496 225.792 247.552 413.952 247.552 188.416 0 352.256-173.056 413.952-247.552 7.68-9.216 7.68-22.784 0-32.256-61.44-74.496-225.536-247.552-413.952-247.552z" fill="#060001" p-id="22111"></path><path d="M514.048 652.288c-86.016 0-156.16-70.144-156.16-156.16s70.144-156.16 156.16-156.16 156.16 70.144 156.16 156.16-69.888 156.16-156.16 156.16z m0-250.88c-52.224 0-94.72 42.496-94.72 94.72s42.496 94.72 94.72 94.72 94.72-42.496 94.72-94.72-42.496-94.72-94.72-94.72z" fill="#060001" p-id="22112"></path></svg>