<?xml version="1.0" standalone="no"?><!DOCTYPE svg PUBLIC "-//W3C//DTD SVG 1.1//EN" "http://www.w3.org/Graphics/SVG/1.1/DTD/svg11.dtd"><svg t="1763458682205" class="icon" viewBox="0 0 1024 1024" version="1.1" xmlns="http://www.w3.org/2000/svg" p-id="7342" xmlns:xlink="http://www.w3.org/1999/xlink" width="200" height="200"><path d="M120.226909 186.181818h7.773091c10.333091 0 15.499636 5.725091 15.499636 17.221818v653.637819c0 11.450182-5.12 17.221818-15.499636 17.221818h-7.773091c-10.333091 0-15.499636-5.771636-15.499636-17.221818V203.403636c0-11.496727 5.166545-17.221818 15.499636-17.221818zM372.363636 186.181818h7.773091c10.333091 0 15.499636 5.725091 15.499637 17.221818v481.605819c0 11.496727-5.166545 17.221818-15.499637 17.221818H372.363636c-10.333091 0-15.499636-5.725091-15.499636-17.221818V203.403636c0-11.496727 5.12-17.221818 15.499636-17.221818zM294.772364 186.181818H302.545455c10.333091 0 15.499636 5.725091 15.499636 17.221818v481.605819c0 11.496727-5.12 17.221818-15.499636 17.221818h-7.773091c-10.333091 0-15.499636-5.725091-15.499637-17.221818V203.403636c0-11.496727 5.166545-17.221818 15.499637-17.221818zM837.818182 186.181818h7.773091c10.333091 0 15.499636 5.725091 15.499636 17.221818v481.605819c0 11.496727-5.166545 17.221818-15.499636 17.221818H837.818182c-10.333091 0-15.499636-5.725091-15.499637-17.221818V203.403636c0-11.496727 5.12-17.221818 15.499637-17.221818zM760.226909 186.181818h7.773091c10.333091 0 15.499636 5.725091 15.499636 17.221818v481.605819c0 11.496727-5.12 17.221818-15.499636 17.221818h-7.773091c-10.333091 0-15.499636-5.725091-15.499636-17.221818V203.403636c0-11.496727 5.166545-17.221818 15.499636-17.221818zM566.318545 186.181818h7.726546c10.379636 0 15.546182 5.725091 15.546182 17.221818v481.605819c0 11.496727-5.166545 17.221818-15.546182 17.221818h-7.726546c-10.379636 0-15.546182-5.725091-15.546181-17.221818V203.403636c0-11.496727 5.166545-17.221818 15.546181-17.221818zM178.408727 186.181818h46.545455c10.379636 0 15.546182 5.725091 15.546182 17.221818v481.605819c0 11.496727-5.166545 17.221818-15.546182 17.221818h-46.545455c-10.333091 0-15.499636-5.725091-15.499636-17.221818V203.403636c0-11.496727 5.166545-17.221818 15.499636-17.221818zM449.954909 186.181818h46.545455c10.333091 0 15.499636 5.725091 15.499636 17.221818v567.621819c0 11.496727-5.166545 17.221818-15.499636 17.221818h-46.545455c-10.379636 0-15.546182-5.725091-15.546182-17.221818V203.403636c0-11.496727 5.166545-17.221818 15.546182-17.221818zM643.863273 186.181818h46.545454c10.379636 0 15.546182 5.725091 15.546182 17.221818v481.605819c0 11.496727-5.166545 17.221818-15.546182 17.221818h-46.545454c-10.333091 0-15.499636-5.725091-15.499637-17.221818V203.403636c0-11.496727 5.166545-17.221818 15.499637-17.221818zM896 186.181818h7.773091c10.333091 0 15.499636 5.725091 15.499636 17.221818v653.637819c0 11.450182-5.166545 17.221818-15.499636 17.221818h-7.773091c-10.333091 0-15.499636-5.771636-15.499636-17.221818V203.403636c0-11.496727 5.12-17.221818 15.499636-17.221818z" fill="#616A84" opacity=".495" p-id="7343"></path><path d="M345.227636 778.286545h23.272728c4.235636 0 7.726545 4.654545 7.726545 10.333091v30.952728a12.241455 12.241455 0 0 1-2.234182 7.307636 6.981818 6.981818 0 0 1-5.492363 3.025455h-23.272728a6.981818 6.981818 0 0 1-5.492363-3.025455 12.241455 12.241455 0 0 1-2.280728-7.307636v-30.952728c0-5.678545 3.490909-10.333091 7.773091-10.333091z m232.727273 0h23.272727c4.235636 0 7.726545 4.654545 7.726546 10.333091v30.952728a12.241455 12.241455 0 0 1-2.234182 7.307636 6.981818 6.981818 0 0 1-5.492364 3.025455h-23.272727a6.981818 6.981818 0 0 1-5.492364-3.025455 12.241455 12.241455 0 0 1-2.280727-7.307636v-30.952728c0-5.678545 3.490909-10.333091 7.773091-10.333091z m77.544727 0h23.272728c4.282182 0 7.773091 4.654545 7.773091 10.333091v30.952728a12.241455 12.241455 0 0 1-2.280728 7.307636 6.981818 6.981818 0 0 1-5.492363 3.025455h-23.272728a6.981818 6.981818 0 0 1-5.492363-3.025455 12.241455 12.241455 0 0 1-2.234182-7.307636v-30.952728c0-5.678545 3.490909-10.333091 7.726545-10.333091z m77.591273 0h23.272727c4.282182 0 7.773091 4.654545 7.773091 10.333091v30.952728a12.241455 12.241455 0 0 1-2.327272 7.307636 6.981818 6.981818 0 0 1-5.445819 3.025455h-23.272727a6.981818 6.981818 0 0 1-5.492364-3.025455 12.241455 12.241455 0 0 1-2.280727-7.307636v-30.952728c0-5.678545 3.490909-10.333091 7.773091-10.333091z m77.591273 0h23.272727c4.235636 0 7.726545 4.654545 7.726546 10.333091v30.952728a12.241455 12.241455 0 0 1-2.234182 7.307636 6.981818 6.981818 0 0 1-5.492364 3.025455h-23.272727a6.981818 6.981818 0 0 1-5.492364-3.025455 12.241455 12.241455 0 0 1-2.280727-7.307636v-30.952728c0-5.678545 3.490909-10.333091 7.773091-10.333091z m-543.045818 0h23.272727c4.282182 0 7.773091 4.654545 7.773091 10.333091v30.952728a12.241455 12.241455 0 0 1-2.327273 7.307636 6.981818 6.981818 0 0 1-5.445818 3.025455h-23.272727a6.981818 6.981818 0 0 1-5.492364-3.025455 12.241455 12.241455 0 0 1-2.280727-7.307636v-30.952728c0-5.678545 3.490909-10.333091 7.773091-10.333091z m678.772363 0h23.272728c4.282182 0 7.773091 4.654545 7.77309 10.333091v30.952728a12.241455 12.241455 0 0 1-2.280727 7.307636 6.981818 6.981818 0 0 1-5.492363 3.025455h-23.272728a6.981818 6.981818 0 0 1-5.492363-3.025455 12.241455 12.241455 0 0 1-2.234182-7.307636v-30.952728c0-5.678545 3.490909-10.333091 7.726545-10.333091z m-756.363636 0h23.272727c4.282182 0 7.773091 4.654545 7.773091 10.333091v30.952728a12.241455 12.241455 0 0 1-2.280727 7.307636 6.981818 6.981818 0 0 1-5.492364 3.025455h-23.272727a6.981818 6.981818 0 0 1-5.492364-3.025455 12.241455 12.241455 0 0 1-2.234182-7.307636v-30.952728c0-5.678545 3.490909-10.333091 7.726546-10.333091z m-135.726546 0h23.272728c4.235636 0 7.726545 4.654545 7.726545 10.333091v30.952728a12.241455 12.241455 0 0 1-2.234182 7.307636 6.981818 6.981818 0 0 1-5.492363 3.025455h-23.272728a6.981818 6.981818 0 0 1-5.492363-3.025455 12.241455 12.241455 0 0 1-2.280727-7.307636v-30.952728c0-5.678545 3.490909-10.333091 7.77309-10.333091z" fill="#2A375F" opacity=".574" p-id="7344"></path><path d="M72.145455 695.854545V837.818182a114.036364 114.036364 0 0 0 106.542545 113.803636L186.181818 951.854545h211.781818v51.2H186.181818a165.236364 165.236364 0 0 1-165.003636-156.16L20.945455 837.818182v-141.963637h51.2z m930.90909 0V837.818182a165.236364 165.236364 0 0 1-156.16 165.003636L837.818182 1003.054545h-211.781818v-51.2H837.818182a114.036364 114.036364 0 0 0 113.803636-106.542545L951.854545 837.818182v-141.963637h51.2zM397.963636 20.945455v51.2H186.181818a114.036364 114.036364 0 0 0-113.803636 106.542545L72.145455 186.181818v141.963637H20.945455V186.181818A165.236364 165.236364 0 0 1 177.105455 21.178182L186.181818 20.945455h211.781818z m439.854546 0a165.236364 165.236364 0 0 1 165.003636 156.16L1003.054545 186.181818v141.963637h-51.2V186.181818a114.036364 114.036364 0 0 0-106.542545-113.803636L837.818182 72.145455h-211.781818V20.945455H837.818182z" fill="#2A375F" p-id="7345"></path></svg>