<?xml version="1.0" standalone="no"?><!DOCTYPE svg PUBLIC "-//W3C//DTD SVG 1.1//EN" "http://www.w3.org/Graphics/SVG/1.1/DTD/svg11.dtd"><svg t="1763469747629" class="icon" viewBox="0 0 1024 1024" version="1.1" xmlns="http://www.w3.org/2000/svg" p-id="17443" xmlns:xlink="http://www.w3.org/1999/xlink" width="200" height="200"><path d="M200 112a8 8 0 0 0-8 8v541.132c-53.166 15.552-92 64.675-92 122.868 0 70.692 57.308 128 128 128 70.692 0 128-57.308 128-128 0-58.193-38.834-107.316-92-122.868V120a8 8 0 0 0-8-8h-56z m284 0a8 8 0 0 0-8 8v270.132c-53.166 15.552-92 64.675-92 122.868s38.834 107.316 92 122.868V906a8 8 0 0 0 8 8h56a8 8 0 0 0 8-8V635.868c53.166-15.552 92-64.675 92-122.868s-38.834-107.316-92-122.868V120a8 8 0 0 0-8-8h-56z m348 250.868c53.166-15.552 92-64.675 92-122.868 0-70.692-57.308-128-128-128-70.692 0-128 57.308-128 128 0 58.193 38.834 107.316 92 122.868V904a8 8 0 0 0 8 8h56a8 8 0 0 0 8-8V362.868zM292 784c0 35.346-28.654 64-64 64-35.346 0-64-28.654-64-64 0-35.346 28.654-64 64-64 35.346 0 64 28.654 64 64z m568-544c0 35.346-28.654 64-64 64-35.346 0-64-28.654-64-64 0-35.346 28.654-64 64-64 35.346 0 64 28.654 64 64z" fill="#000000" p-id="17444"></path></svg>