<svg width="24" height="24" viewBox="0 0 24 24" fill="none" xmlns="http://www.w3.org/2000/svg">
<path d="M 13.5 5.7 C 13.5 7.8 12.6 9.8 11.2 11.3 L 11.2 11.3 C 11.1 11.4 11 11.5 10.9 11.6 L 10.9 11.6 C 9.5 13.1 8.6 15 8.6 17.2 C 8.6 17.9 8.7 18.6 8.8 19.2 C 6.4 18.3 4.5 16.3 3.8 13.9 C 3.5 13.1 3.4 12.4 3.4 11.5 C 3.4 9.5 4.2 7.6 5.5 6.1 C 5.5 6.1 5.6 6.1 5.6 6.1 L 11.1 0 C 12.1 0.9 12.8 2.1 13.2 3.3 C 13.2 3.3 13.2 3.4 13.2 3.4 C 13.4 4.1 13.5 4.9 13.5 5.7 Z" fill="url(#paint0_linear_5399_2979)"/>
<path d="M 10.4 18.3 C 10.4 16.2 11.3 14.2 12.7 12.7 L 12.7 12.7 C 12.8 12.6 12.9 12.5 13 12.4 L 13 12.4 C 14.4 10.9 15.3 9 15.3 6.8 C 15.3 6.1 15.2 5.4 15.1 4.8 C 17.5 5.7 19.4 7.7 20.2 10.1 C 20.4 10.9 20.5 11.6 20.5 12.5 C 20.5 14.5 19.7 16.4 18.4 17.9 C 18.4 17.9 18.3 17.9 18.3 17.9 L 12.8 24 C 11.8 23.1 11.1 21.9 10.8 20.7 C 10.7 20.7 10.7 20.6 10.7 20.6 C 10.5 19.9 10.4 19.1 10.4 18.3 Z" fill="url(#paint1_linear_5399_2979)"/>
<defs>
<linearGradient id="paint0_linear_5399_2979" x1="12.3584" y1="0.905405" x2="6.46378" y2="16.8871" gradientUnits="userSpaceOnUse">
<stop stop-color="black"/>
<stop offset="0.4" stop-color="black"/>
<stop offset="1" stop-color="black" stop-opacity="0.4"/>
</linearGradient>
<linearGradient id="paint1_linear_5399_2979" x1="19.3584" y1="5.68568" x2="13.4638" y2="21.6674" gradientUnits="userSpaceOnUse">
<stop stop-color="black" stop-opacity="0.4"/>
<stop offset="0.6" stop-color="black"/>
<stop offset="1" stop-color="black"/>
</linearGradient>
</defs>
</svg>
