<svg width="16" height="16" viewBox="0 0 16 16" fill="none" xmlns="http://www.w3.org/2000/svg">
<path d="M1.40025 7.78823L6.84515 2.34333C7.58705 1.60143 8.78991 1.60143 9.53181 2.34333V2.34333C10.2737 3.08523 10.2737 4.28809 9.53181 5.02999L5.50112 9.06067" stroke="white" stroke-opacity="0.85" stroke-linecap="round" stroke-linejoin="round"/>
<path d="M5.50129 9.06072L9.53197 5.03004C10.2739 4.28814 11.4767 4.28814 12.2186 5.03004V5.03004C12.9605 5.77194 12.9605 6.9748 12.2186 7.7167L6.91516 13.0202L8.68327 14.7883" stroke="white" stroke-opacity="0.85" stroke-linecap="round" stroke-linejoin="round"/>
<path d="M8.18848 3.68701L4.19315 7.68234C3.43172 8.44377 3.43172 9.67828 4.19315 10.4397V10.4397C4.95458 11.2011 6.1891 11.2011 6.95052 10.4397L10.9458 6.44438" stroke="white" stroke-opacity="0.85" stroke-linecap="round" stroke-linejoin="round"/>
</svg>
