<svg width="16" height="16" viewBox="0 0 16 16" fill="none" xmlns="http://www.w3.org/2000/svg">
<circle cx="5.19881" cy="7.50057" r="2.67" stroke="black" stroke-opacity="0.85" stroke-linecap="round" stroke-linejoin="round"/>
<path d="M1.64258 14.2431V13.1351C1.64258 12.7815 1.78305 12.4423 2.0331 12.1923C2.28315 11.9422 2.62229 11.8018 2.97591 11.8018H7.47591C7.82953 11.8018 8.16867 11.9422 8.41872 12.1923C8.66877 12.4423 8.80924 12.7815 8.80924 13.1351V14.2431" stroke="black" stroke-opacity="0.85" stroke-linecap="round" stroke-linejoin="round"/>
<path d="M5 3V2.5C5 1.94772 5.44772 1.5 6 1.5H14C14.5523 1.5 15 1.94772 15 2.5V6.5C15 7.05228 14.5523 7.5 14 7.5H12.5L10.5 9.5V7.5H9.5" stroke="black" stroke-opacity="0.85" stroke-linecap="round" stroke-linejoin="round"/>
</svg>
