<svg width="96" height="96" viewBox="0 0 96 96" fill="none" xmlns="http://www.w3.org/2000/svg">
<path d="M53.8128 23.4464C53.8128 31.9134 50.5646 39.6195 45.2486 45.3845L45.2378 45.3954C44.8472 45.778 44.4653 46.1714 44.0921 46.5736L44.0813 46.5844C38.7674 52.3494 35.5192 60.0556 35.5192 68.5226C35.5192 71.2507 35.8555 73.9006 36.4913 76.4309C27.3803 72.7702 20.3219 65.0684 17.5272 55.5384C16.6788 52.6429 16.2231 49.5778 16.2231 46.4062C16.2231 38.2913 19.2066 30.8743 24.1321 25.1985C24.2037 25.1159 24.2775 25.0333 24.3491 24.9506L45.0099 1.25391C48.4534 4.90809 51.0572 9.3644 52.5066 14.3142C52.5196 14.3511 52.5283 14.3881 52.5392 14.4229C53.368 17.288 53.8128 20.3139 53.8128 23.4464Z" fill="url(#paint0_linear_5315_8525)"/>
<path d="M40.6553 71.4064C40.6553 62.9394 43.9035 55.2332 49.2195 49.4683L49.2303 49.4574C49.6209 49.0748 50.0028 48.6814 50.376 48.2792L50.3868 48.2683C55.7007 42.5034 58.9489 34.7972 58.9489 26.3302C58.9489 23.6021 58.6126 20.9522 57.9768 18.4219C67.0878 22.0826 74.1462 29.7844 76.9409 39.3144C77.7893 42.2099 78.245 45.275 78.245 48.4466C78.245 56.5614 75.2615 63.9785 70.336 69.6543C70.2644 69.7369 70.1907 69.8195 70.1191 69.9021L49.4582 93.5989C46.0147 89.9447 43.4109 85.4884 41.9615 80.5386C41.9485 80.5016 41.9398 80.4647 41.9289 80.4299C41.1001 77.5648 40.6553 74.5389 40.6553 71.4064Z" fill="url(#paint1_linear_5315_8525)"/>
<defs>
<linearGradient id="paint0_linear_5315_8525" x1="49.5555" y1="4.79533" x2="25.6188" y2="66.5294" gradientUnits="userSpaceOnUse">
<stop stop-color="white"/>
<stop offset="0.36439" stop-color="white"/>
<stop offset="1" stop-color="white" stop-opacity="0.4"/>
</linearGradient>
<linearGradient id="paint1_linear_5315_8525" x1="73.9876" y1="21.9633" x2="50.0509" y2="83.6973" gradientUnits="userSpaceOnUse">
<stop stop-color="white" stop-opacity="0.4"/>
<stop offset="0.63561" stop-color="white"/>
<stop offset="1" stop-color="white"/>
</linearGradient>
</defs>
</svg>
