<svg width="24" height="24" viewBox="0 0 24 24" fill="none" xmlns="http://www.w3.org/2000/svg">
<g opacity="0.8">
<path d="M13.7028 5.67375C13.7028 7.83844 12.8298 9.80861 11.4011 11.2825L11.3982 11.2853C11.2932 11.3831 11.1906 11.4837 11.0903 11.5865L11.0873 11.5893C9.65917 13.0631 8.78618 15.0333 8.78618 17.198C8.78618 17.8955 8.87657 18.5729 9.04744 19.2198C6.59873 18.2839 4.70169 16.3149 3.95058 13.8784C3.72256 13.1382 3.6001 12.3545 3.6001 11.5437C3.6001 9.46904 4.40195 7.57279 5.72573 6.1217C5.74498 6.10058 5.7648 6.07946 5.78405 6.05834L11.3369 0C12.2624 0.934233 12.9622 2.07354 13.3518 3.33901C13.3553 3.34845 13.3576 3.3579 13.3605 3.36679C13.5833 4.09929 13.7028 4.8729 13.7028 5.67375Z" fill="url(#paint0_linear_5399_2979)"/>
<path d="M10.2729 18.3264C10.2729 16.1617 11.1459 14.1915 12.5747 12.7176L12.5776 12.7149C12.6826 12.617 12.7852 12.5165 12.8855 12.4136L12.8884 12.4109C14.3166 10.937 15.1896 8.96681 15.1896 6.80213C15.1896 6.10465 15.0992 5.42718 14.9283 4.78027C17.3771 5.71617 19.2741 7.68523 20.0252 10.1217C20.2532 10.862 20.3757 11.6456 20.3757 12.4564C20.3757 14.5311 19.5738 16.4273 18.2501 17.8784C18.2308 17.8995 18.211 17.9207 18.1917 17.9418L12.6388 24.0001C11.7134 23.0659 11.0136 21.9266 10.624 20.6611C10.6205 20.6517 10.6182 20.6422 10.6153 20.6333C10.3925 19.9008 10.2729 19.1272 10.2729 18.3264Z" fill="url(#paint1_linear_5399_2979)"/>
</g>
<defs>
<linearGradient id="paint0_linear_5399_2979" x1="12.5586" y1="0.905405" x2="6.66397" y2="16.8871" gradientUnits="userSpaceOnUse">
<stop stop-color="white"/>
<stop offset="0.36439" stop-color="white"/>
<stop offset="1" stop-color="white" stop-opacity="0.4"/>
</linearGradient>
<linearGradient id="paint1_linear_5399_2979" x1="19.2315" y1="5.68568" x2="13.3368" y2="21.6674" gradientUnits="userSpaceOnUse">
<stop stop-color="white" stop-opacity="0.4"/>
<stop offset="0.63561" stop-color="white"/>
<stop offset="1" stop-color="white"/>
</linearGradient>
</defs>
</svg>
