<svg width="24" height="24" viewBox="0 0 24 24" fill="none" xmlns="http://www.w3.org/2000/svg">
<path d="M13.5026 5.67375C13.5026 7.83844 12.6296 9.80861 11.2009 11.2825L11.198 11.2853C11.093 11.3831 10.9904 11.4837 10.8901 11.5865L10.8871 11.5893C9.45898 13.0631 8.58598 15.0333 8.58598 17.198C8.58598 17.8955 8.67637 18.5729 8.84724 19.2198C6.39853 18.2839 4.5015 16.3149 3.75038 13.8784C3.52237 13.1382 3.3999 12.3545 3.3999 11.5437C3.3999 9.46904 4.20175 7.57279 5.52554 6.1217C5.54478 6.10058 5.56461 6.07946 5.58385 6.05834L11.1367 0C12.0622 0.934233 12.762 2.07354 13.1516 3.33901C13.1551 3.34845 13.1574 3.3579 13.1603 3.36679C13.3831 4.09929 13.5026 4.8729 13.5026 5.67375Z" fill="url(#paint0_linear_5399_2979)"/>
<path d="M10.3999 18.3264C10.3999 16.1617 11.2729 14.1915 12.7017 12.7176L12.7046 12.7149C12.8095 12.617 12.9122 12.5165 13.0125 12.4136L13.0154 12.4109C14.4436 10.937 15.3166 8.96681 15.3166 6.80213C15.3166 6.10465 15.2262 5.42718 15.0553 4.78027C17.504 5.71617 19.401 7.68523 20.1522 10.1217C20.3802 10.862 20.5026 11.6456 20.5026 12.4564C20.5026 14.5311 19.7008 16.4273 18.377 17.8784C18.3578 17.8995 18.3379 17.9207 18.3187 17.9418L12.7658 24.0001C11.8403 23.0659 11.1405 21.9266 10.751 20.6611C10.7475 20.6517 10.7451 20.6422 10.7422 20.6333C10.5195 19.9008 10.3999 19.1272 10.3999 18.3264Z" fill="url(#paint1_linear_5399_2979)"/>
<defs>
<linearGradient id="paint0_linear_5399_2979" x1="12.3584" y1="0.905405" x2="6.46378" y2="16.8871" gradientUnits="userSpaceOnUse">
<stop stop-color="white"/>
<stop offset="0.36439" stop-color="white"/>
<stop offset="1" stop-color="white" stop-opacity="0.4"/>
</linearGradient>
<linearGradient id="paint1_linear_5399_2979" x1="19.3584" y1="5.68568" x2="13.4638" y2="21.6674" gradientUnits="userSpaceOnUse">
<stop stop-color="white" stop-opacity="0.4"/>
<stop offset="0.63561" stop-color="white"/>
<stop offset="1" stop-color="white"/>
</linearGradient>
</defs>
</svg>
