<svg width="16" height="16" viewBox="0 0 16 16" fill="none" xmlns="http://www.w3.org/2000/svg">
<path d="M6.09461 14.3904C4.97758 14.0579 3.98328 13.4404 3.19597 12.6223C3.48968 12.2742 3.66668 11.8245 3.66668 11.3334C3.66668 10.2288 2.77125 9.33336 1.66668 9.33336C1.59986 9.33336 1.53381 9.33667 1.46867 9.34307C1.37994 8.90923 1.33334 8.4601 1.33334 8.00003C1.33334 7.30316 1.44027 6.63127 1.63861 5.99983C1.64795 5.99997 1.6573 6.00003 1.66668 6.00003C2.77125 6.00003 3.66668 5.1046 3.66668 4.00003C3.66668 3.68293 3.59288 3.3831 3.46154 3.1167C4.23251 2.39983 5.17351 1.86334 6.21738 1.57438C6.54814 2.22273 7.22224 2.66671 8.00001 2.66671C8.77778 2.66671 9.45188 2.22273 9.78264 1.57438C10.8265 1.86334 11.7675 2.39983 12.5385 3.1167C12.4071 3.3831 12.3333 3.68293 12.3333 4.00003C12.3333 5.1046 13.2288 6.00003 14.3333 6.00003C14.3427 6.00003 14.3521 5.99997 14.3614 5.99983C14.5597 6.63127 14.6667 7.30316 14.6667 8.00003C14.6667 8.4601 14.6201 8.90923 14.5313 9.34307C14.4662 9.33667 14.4002 9.33336 14.3333 9.33336C13.2288 9.33336 12.3333 10.2288 12.3333 11.3334C12.3333 11.8245 12.5103 12.2742 12.804 12.6223C12.0167 13.4404 11.0224 14.0579 9.90541 14.3904C9.64761 13.584 8.89201 13 8.00001 13C7.10801 13 6.35241 13.584 6.09461 14.3904Z" stroke="white" stroke-opacity="0.85" stroke-linejoin="round"/>
<path d="M7.99999 10.3333C9.28866 10.3333 10.3333 9.28867 10.3333 8C10.3333 6.71133 9.28866 5.66667 7.99999 5.66667C6.71132 5.66667 5.66666 6.71133 5.66666 8C5.66666 9.28867 6.71132 10.3333 7.99999 10.3333Z" stroke="white" stroke-opacity="0.85" stroke-linejoin="round"/>
</svg>
