<svg width="16" height="16" viewBox="0 0 16 16" fill="none" xmlns="http://www.w3.org/2000/svg">
<g clip-path="url(#clip0_13620_345)">
<path d="M8.00016 14.6667C11.6821 14.6667 14.6668 11.6819 14.6668 8.00004C14.6668 4.31814 11.6821 1.33337 8.00016 1.33337C4.31826 1.33337 1.3335 4.31814 1.3335 8.00004C1.3335 11.6819 4.31826 14.6667 8.00016 14.6667Z" stroke="black" stroke-opacity="0.85" stroke-linecap="round" stroke-linejoin="round"/>
<path d="M8 8.66675C9.10457 8.66675 10 7.77132 10 6.66675C10 5.56218 9.10457 4.66675 8 4.66675C6.89543 4.66675 6 5.56218 6 6.66675C6 7.77132 6.89543 8.66675 8 8.66675Z" stroke="black" stroke-opacity="0.85" stroke-linecap="round" stroke-linejoin="round"/>
<path d="M4.6665 13.7746V12.6666C4.6665 12.313 4.80698 11.9738 5.05703 11.7238C5.30708 11.4737 5.64622 11.3333 5.99984 11.3333H9.99984C10.3535 11.3333 10.6926 11.4737 10.9426 11.7238C11.1927 11.9738 11.3332 12.313 11.3332 12.6666V13.7746" stroke="black" stroke-opacity="0.85" stroke-linecap="round" stroke-linejoin="round"/>
</g>
<defs>
<clipPath id="clip0_13620_345">
<rect width="16" height="16" fill="white"/>
</clipPath>
</defs>
</svg>
